Coordinates
version=1
nRows=24
nColumns=22
inDegrees=yes

Units are S.I. units (second, meters, Newtons, ...)
If the header above contains a line with 'inDegrees', this indicates whether rotational values are in degrees (yes) or radians (no).

endheader
time	pelvis_tilt	pelvis_list	pelvis_rotation	pelvis_tx	pelvis_ty	pelvis_tz	hip_flexion_r	hip_adduction_r	hip_rotation_r	knee_angle_r	ankle_angle_r	subtalar_angle_r	hip_flexion_l	hip_adduction_l	hip_rotation_l	knee_angle_l	ankle_angle_l	subtalar_angle_l	lumbar_extension	lumbar_bending	lumbar_rotation
      2.81000000	      1.61327545	     -6.25404537	      3.94241193	     -0.76760090	      1.06874359	     -0.31393211	     12.70339837	      8.13907129	     -8.08201914	    -17.48349667	      7.63950427	      0.76565856	      5.97893922	     -6.79338849	      3.78082644	    -55.64476042	     -2.51506808	     10.65354917	     -6.35989644	      5.72888896	     -6.47535828
      2.82000000	      1.83495170	     -6.42690929	      3.97295811	     -0.75925003	      1.06968971	     -0.31257641	     11.85458643	      8.47001214	     -8.04331207	    -17.22236771	      7.99541978	      0.89996347	      7.14366462	     -7.18355159	      3.58316869	    -57.42547989	     -2.31994747	      9.58503306	     -6.57165562	      5.83974566	     -6.09245313
      2.83000000	      2.05761080	     -6.52930899	      3.96597221	     -0.75098814	      1.07068217	     -0.31125772	     11.00277696	      8.73118131	     -7.95411383	    -16.96650652	      8.35877667	      1.02481725	      8.25186942	     -7.46975314	      3.40693091	    -58.96247787	     -1.93224987	      8.34341496	     -6.79553258	      5.86889373	     -5.70340610
      2.84000000	      2.27263284	     -6.57896273	      3.93101133	     -0.74283798	      1.07171502	     -0.30998553	     10.15156041	      8.94230404	     -7.78646262	    -16.70025779	      8.69659072	      1.14397611	      9.31594899	     -7.66341017	      3.26760496	    -60.25302748	     -1.44014753	      7.07819866	     -7.02557118	      5.84018855	     -5.34812940
      2.85000000	      2.48008182	     -6.54099816	      3.86776019	     -0.73478121	      1.07278026	     -0.30879853	      9.31557374	      9.05173688	     -7.62159942	    -16.45870822	      9.05730185	      1.26520566	     10.31893174	     -7.72007412	      3.15326103	    -61.28256952	     -0.86805901	      5.81476464	     -7.25906548	      5.71437887	     -5.00342639
      2.86000000	      2.66769015	     -6.44036614	      3.78123445	     -0.72682662	      1.07384962	     -0.30769672	      8.50099115	      9.08696551	     -7.44116519	    -16.22024505	      9.40894023	      1.38186629	     11.28005226	     -7.66624434	      3.06855933	    -62.06033977	     -0.26878511	      4.68224301	     -7.48243790	      5.52265707	     -4.67923385
      2.87000000	      2.82854920	     -6.27916456	      3.66998107	     -0.71895678	      1.07490322	     -0.30667786	      7.71537245	      9.04698249	     -7.26365041	    -15.98452835	      9.75359813	      1.48702418	     12.20256199	     -7.50955129	      2.99797894	    -62.58579258	      0.32699354	      3.71999161	     -7.68459191	      5.26683831	     -4.37024922
      2.88000000	      2.96624017	     -6.07726629	      3.54538678	     -0.71122540	      1.07591772	     -0.30575759	      6.96869805	      8.95170567	     -7.07561466	    -15.76698203	     10.07646467	      1.57189778	     13.09418619	     -7.26410487	      2.96654138	    -62.87687602	      0.90207487	      2.94464643	     -7.87956297	      4.97346294	     -4.07640446
      2.89000000	      3.06605029	     -5.85033793	      3.39192213	     -0.70356617	      1.07685770	     -0.30488955	      6.27849510	      8.81413202	     -6.92865938	    -15.57216553	     10.37715200	      1.61834080	     13.96086823	     -6.97206755	      2.92947625	    -62.93367371	      1.51319569	      2.47142555	     -8.04105516	      4.65287421	     -3.76178966
      2.90000000	      3.15357271	     -5.59668018	      3.22000808	     -0.69595726	      1.07777820	     -0.30407460	      5.58116782	      8.64682379	     -6.70366553	    -15.33615115	     10.64030018	      1.65137546	     14.77527867	     -6.63360815	      2.88958833	    -62.75634198	      2.01182740	      1.97596885	     -8.19513379	      4.30862928	     -3.47209709
      2.91000000	      3.19749677	     -5.35535084	      3.03886664	     -0.68839824	      1.07856429	     -0.30331895	      4.95879208	      8.47248853	     -6.56090466	    -15.13950375	     10.87566569	      1.64674198	     15.58154343	     -6.30247314	      2.85131432	    -62.37471129	      2.60988191	      1.77656027	     -8.30533766	      3.98154875	     -3.16839498
      2.92000000	      3.23828663	     -5.09036905	      2.82417398	     -0.68086220	      1.07931556	     -0.30257335	      4.33566992	      8.27166689	     -6.35645123	    -14.93554513	     11.09731128	      1.59792317	     16.31480727	     -5.94863619	      2.78356452	    -61.76891313	      3.15096463	      1.62642463	     -8.42054153	      3.62676090	     -2.83697858
      2.93000000	      3.26068211	     -4.84118856	      2.60551730	     -0.67331931	      1.07996327	     -0.30186023	      3.73457250	      8.07944809	     -6.16909322	    -14.72876748	     11.29007401	      1.50650584	     17.00793026	     -5.62277466	      2.70531729	    -60.97076758	      3.72002790	      1.58044635	     -8.51490167	      3.29295379	     -2.52509942
      2.94000000	      3.28915682	     -4.59347505	      2.38133292	     -0.66576853	      1.08054831	     -0.30119719	      3.12450853	      7.88538788	     -5.95195550	    -14.51707746	     11.47096781	      1.33450681	     17.63015872	     -5.30951221	      2.61343165	    -59.98118909	      4.25401132	      1.62866123	     -8.61792344	      2.96397173	     -2.18772440
      2.95000000	      3.29858800	     -4.36858857	      2.16113106	     -0.65818687	      1.08100946	     -0.30057203	      2.53676369	      7.70912847	     -5.75863749	    -14.30426616	     11.63350436	      1.12224348	     18.21348013	     -5.03944083	      2.50670385	    -58.82011071	      4.79544567	      1.72970672	     -8.69680634	      2.66513905	     -1.88912867
      2.96000000	      3.33474411	     -4.15900617	      1.95705712	     -0.65057797	      1.08142821	     -0.30001707	      1.90288713	      7.55184544	     -5.51874671	    -14.05799931	     11.77408982	      0.77444464	     18.70632323	     -4.79090395	      2.41691534	    -57.49147747	      5.25601857	      1.91951783	     -8.80654212	      2.38985135	     -1.60085814
      2.97000000	      3.33595060	     -3.97207240	      1.76547928	     -0.64294904	      1.08167734	     -0.29953151	      1.32385637	      7.40772059	     -5.32040145	    -13.84206889	     11.92444141	      0.45323403	     19.18390685	     -4.58914105	      2.30185364	    -56.02199986	      5.71269144	      2.08821348	     -8.87350520	      2.14617866	     -1.34180025
      2.98000000	      3.32884841	     -3.80378762	      1.58757672	     -0.63530243	      1.08180848	     -0.29911501	      0.75962763	      7.27813798	     -5.12306316	    -13.63666328	     12.08894658	      0.12577014	     19.61451885	     -4.42264576	      2.17552158	    -54.41846499	      6.12083529	      2.26348266	     -8.93047956	      1.92769904	     -1.09519810
      2.99000000	      3.30894376	     -3.65550439	      1.42458117	     -0.62763366	      1.08181380	     -0.29876750	      0.21941111	      7.16349205	     -4.93506352	    -13.45008236	     12.27479012	     -0.18211528	     20.00390120	     -4.29327624	      2.03354199	    -52.69296806	      6.48155791	      2.43700171	     -8.97174034	      1.73499123	     -0.85755165
      3.00000000	      3.26265590	     -3.52099451	      1.27437800	     -0.61992263	      1.08166915	     -0.29849316	     -0.27611766	      7.05306181	     -4.77884905	    -13.29668587	     12.48957242	     -0.42816396	     20.36874197	     -4.20888767	      1.83046394	    -50.85895817	      6.81227161	      2.58702180	     -8.97652346	      1.56418646	     -0.64807111
      3.01000000	      3.23900698	     -3.40518397	      1.15069796	     -0.61215765	      1.08147099	     -0.29830198	     -0.80698381	      6.96159305	     -4.60122655	    -13.12470847	     12.70940560	     -0.70806777	     20.65215204	     -4.15547991	      1.60945173	    -48.91532527	      7.04506071	      2.76394802	     -9.00298791	      1.41850033	     -0.45655396
      3.02000000	      3.19324467	     -3.30531558	      1.04874076	     -0.60433451	      1.08113568	     -0.29821462	     -1.29906207	      6.87695397	     -4.45924625	    -12.98428984	     12.95519271	     -0.93115079	     20.90775894	     -4.13612692	      1.33088173	    -46.87956903	      7.21844036	      2.90570749	     -8.99664471	      1.29961513	     -0.28982336
      3.03000000	      3.18026833	     -3.22637658	      0.97611680	     -0.59643193	      1.08076395	     -0.29820239	     -1.83828172	      6.81475128	     -4.31732502	    -12.82530285	     13.19682431	     -1.18130531	     21.07117016	     -4.15042904	      1.00542630	    -44.74856987	      7.31045446	      3.03889513	     -9.02322313	      1.20597837	     -0.16293558
      3.04000000	      3.09673222	     -3.13967456	      0.90386114	     -0.58848578	      1.08018354	     -0.29830013	     -2.25956330	      6.72703000	     -4.22991285	    -12.75045100	     13.49168849	     -1.32838489	     21.26087736	     -4.17144197	      0.57597466	    -42.54478511	      7.31883974	      3.11959643	     -8.96123625	      1.11233518	     -0.02203842
